<svg xmlns:xlink="http://www.w3.org/1999/xlink" width="20" height="19" viewBox="0 0 20 19" fill="none" xmlns="http://www.w3.org/2000/svg"><path d="M1.07935 2.15913C1.07935 1.56292 1.56267 1.07959 2.15889 1.07959H10.7952C11.3915 1.07959 11.8748 1.56292 11.8748 2.15913V12.9546C11.8748 13.5508 11.3915 14.0341 10.7952 14.0341H2.15889C1.56267 14.0341 1.07935 13.5508 1.07935 12.9546V2.15913Z" fill="#A358DF"></path><path d="M4.10205 1.07959H15.1134C15.7096 1.07959 16.1929 1.56292 16.1929 2.15913V9.71595L13.5875 11.453C13.2079 11.7061 13.0284 12.1705 13.139 12.6131L13.4943 14.0341H4.10205V1.07959Z" fill="#FFFFFF"></path><path d="M5.82959 4.31796C5.82959 3.8708 6.19209 3.5083 6.63925 3.5083H13.6563C14.1034 3.5083 14.4659 3.8708 14.4659 4.31796C14.4659 4.76512 14.1034 5.12762 13.6563 5.12762H6.63925C6.19209 5.12762 5.82959 4.76512 5.82959 4.31796Z" fill="#C3C6D4"></path><path d="M5.82959 7.55722C5.82959 7.11005 6.19209 6.74756 6.63925 6.74756H13.6563C14.1034 6.74756 14.4659 7.11005 14.4659 7.55722C14.4659 8.00438 14.1034 8.36688 13.6563 8.36688H6.63925C6.19209 8.36688 5.82959 8.00438 5.82959 7.55722Z" fill="#C3C6D4"></path><path d="M5.82959 10.796C5.82959 10.3488 6.19209 9.98633 6.63925 9.98633H13.6563C14.1034 9.98633 14.4659 10.3488 14.4659 10.796C14.4659 11.2431 14.1034 11.6056 13.6563 11.6056H6.63925C6.19209 11.6056 5.82959 11.2431 5.82959 10.796Z" fill="#C3C6D4"></path><path fill-rule="evenodd" clip-rule="evenodd" d="M2.15909 0H15.1136C16.3061 0 17.2727 0.966656 17.2727 2.15909V7.17234C17.354 7.16425 17.436 7.16016 17.5184 7.16016C18.1766 7.16016 18.8078 7.42162 19.2732 7.88703C19.7386 8.35244 20.0001 8.98367 20.0001 9.64186C20.0001 10.3 19.7386 10.9313 19.2732 11.3967C18.8078 11.8621 18.1766 12.1236 17.5184 12.1236C16.9227 12.1236 16.3492 11.9094 15.9006 11.5238L14.0892 12.6201C14.1411 12.821 14.168 13.0293 14.168 13.2403C14.168 13.4538 14.1405 13.6645 14.0874 13.8676L15.6992 14.5305C15.7202 14.5078 15.7416 14.4856 15.7635 14.4637C16.2289 13.9982 16.8602 13.7368 17.5184 13.7368C18.1766 13.7368 18.8078 13.9982 19.2732 14.4637C19.7386 14.9291 20.0001 15.5603 20.0001 16.2185C20.0001 16.8767 19.7386 17.5079 19.2732 17.9733C18.8078 18.4387 18.1766 18.7002 17.5184 18.7002C16.8602 18.7002 16.2289 18.4387 15.7635 17.9733C15.2981 17.5079 15.0367 16.8767 15.0367 16.2185C15.0367 16.1495 15.0395 16.0807 15.0452 16.0124L13.16 15.2371C12.7358 15.5502 12.2199 15.722 11.6863 15.722C11.0862 15.722 10.5086 15.5047 10.0585 15.1136H2.15909C0.966658 15.1136 0 14.147 0 12.9545V2.15909C0 0.966656 0.966657 0 2.15909 0ZM9.33495 14.0341C9.2494 13.7807 9.20459 13.5128 9.20459 13.2403C9.20459 12.5821 9.46605 11.9509 9.93146 11.4855C10.3969 11.0201 11.0281 10.7586 11.6863 10.7586C12.2343 10.7586 12.7635 10.9398 13.194 11.2691L15.0842 10.1252C15.0528 9.96715 15.0367 9.80534 15.0367 9.64186C15.0367 8.98367 15.2981 8.35244 15.7635 7.88703C15.8946 7.75594 16.0389 7.64103 16.1932 7.54359V2.15909C16.1932 1.56287 15.7098 1.07954 15.1136 1.07954H2.15909C1.56287 1.07954 1.07954 1.56287 1.07954 2.15909V12.9545C1.07954 13.5507 1.56287 14.0341 2.15909 14.0341H9.33495Z" fill="#676879"></path></svg>